{
	"patcher" : 	{
		"fileversion" : 1,
		"appversion" : 		{
			"major" : 8,
			"minor" : 1,
			"revision" : 11,
			"architecture" : "x64",
			"modernui" : 1
		}
,
		"classnamespace" : "box",
		"rect" : [ 770.0, 418.0, 1068.0, 686.0 ],
		"bglocked" : 0,
		"openinpresentation" : 1,
		"default_fontsize" : 12.0,
		"default_fontface" : 0,
		"default_fontname" : "Arial",
		"gridonopen" : 1,
		"gridsize" : [ 15.0, 15.0 ],
		"gridsnaponopen" : 1,
		"objectsnaponopen" : 1,
		"statusbarvisible" : 2,
		"toolbarvisible" : 1,
		"lefttoolbarpinned" : 0,
		"toptoolbarpinned" : 0,
		"righttoolbarpinned" : 0,
		"bottomtoolbarpinned" : 0,
		"toolbars_unpinned_last_save" : 0,
		"tallnewobj" : 0,
		"boxanimatetime" : 200,
		"enablehscroll" : 1,
		"enablevscroll" : 1,
		"devicewidth" : 0.0,
		"description" : "",
		"digest" : "",
		"tags" : "",
		"style" : "",
		"subpatcher_template" : "",
		"assistshowspatchername" : 0,
		"boxes" : [ 			{
				"box" : 				{
					"activedialcolor" : [ 0.27843137254902, 0.83921568627451, 1.0, 1.0 ],
					"activefgdialcolor" : [ 0.56078431372549, 0.584313725490196, 0.6, 1.0 ],
					"activeneedlecolor" : [ 0.015686274509804, 0.0, 0.0, 0.701960784313725 ],
					"bordercolor" : [ 0.458823529411765, 0.368627450980392, 0.368627450980392, 1.0 ],
					"fgdialcolor" : [ 0.56078431372549, 0.584313725490196, 0.6, 1.0 ],
					"focusbordercolor" : [ 0.643137254901961, 0.643137254901961, 0.643137254901961, 1.0 ],
					"fontface" : 1,
					"id" : "obj-22",
					"maxclass" : "live.dial",
					"numinlets" : 1,
					"numoutlets" : 2,
					"outlettype" : [ "", "float" ],
					"parameter_enable" : 1,
					"patching_rect" : [ 430.0, 311.0, 44.0, 48.0 ],
					"presentation" : 1,
					"presentation_rect" : [ 138.0, 58.60577392578125, 44.0, 48.0 ],
					"saved_attribute_attributes" : 					{
						"valueof" : 						{
							"parameter_exponent" : 4.0,
							"parameter_initial" : [ 0.0 ],
							"parameter_initial_enable" : 1,
							"parameter_linknames" : 1,
							"parameter_longname" : "fcFreqMax",
							"parameter_mmax" : 20000.0,
							"parameter_mmin" : 21.0,
							"parameter_shortname" : "Max",
							"parameter_type" : 0,
							"parameter_unitstyle" : 3
						}

					}
,
					"textcolor" : [ 0.882352941176471, 0.956862745098039, 0.992156862745098, 1.0 ],
					"varname" : "fcFreqMax"
				}

			}
, 			{
				"box" : 				{
					"activedialcolor" : [ 0.27843137254902, 0.83921568627451, 1.0, 1.0 ],
					"activefgdialcolor" : [ 0.56078431372549, 0.584313725490196, 0.6, 1.0 ],
					"activeneedlecolor" : [ 0.015686274509804, 0.0, 0.0, 0.701960784313725 ],
					"bordercolor" : [ 0.458823529411765, 0.368627450980392, 0.368627450980392, 1.0 ],
					"fgdialcolor" : [ 0.56078431372549, 0.584313725490196, 0.6, 1.0 ],
					"focusbordercolor" : [ 0.643137254901961, 0.643137254901961, 0.643137254901961, 1.0 ],
					"fontface" : 1,
					"id" : "obj-21",
					"maxclass" : "live.dial",
					"numinlets" : 1,
					"numoutlets" : 2,
					"outlettype" : [ "", "float" ],
					"parameter_enable" : 1,
					"patching_rect" : [ 380.300000000000011, 311.0, 44.0, 48.0 ],
					"presentation" : 1,
					"presentation_rect" : [ 92.0, 58.60577392578125, 44.0, 48.0 ],
					"saved_attribute_attributes" : 					{
						"valueof" : 						{
							"parameter_exponent" : 4.0,
							"parameter_initial" : [ 0.0 ],
							"parameter_initial_enable" : 1,
							"parameter_linknames" : 1,
							"parameter_longname" : "fcFreqMin",
							"parameter_mmax" : 19000.0,
							"parameter_mmin" : 20.0,
							"parameter_shortname" : "Min",
							"parameter_type" : 0,
							"parameter_unitstyle" : 3
						}

					}
,
					"textcolor" : [ 0.882352941176471, 0.956862745098039, 0.992156862745098, 1.0 ],
					"varname" : "fcFreqMin"
				}

			}
, 			{
				"box" : 				{
					"comment" : "Freq Control",
					"id" : "obj-18",
					"index" : 2,
					"maxclass" : "outlet",
					"numinlets" : 1,
					"numoutlets" : 0,
					"patching_rect" : [ 273.5, 471.0, 25.0, 25.0 ]
				}

			}
, 			{
				"box" : 				{
					"comment" : "Mix Control",
					"id" : "obj-49",
					"index" : 1,
					"maxclass" : "outlet",
					"numinlets" : 1,
					"numoutlets" : 0,
					"patching_rect" : [ 60.0, 471.0, 25.0, 25.0 ]
				}

			}
, 			{
				"box" : 				{
					"id" : "obj-17",
					"maxclass" : "number",
					"numinlets" : 1,
					"numoutlets" : 2,
					"outlettype" : [ "", "bang" ],
					"parameter_enable" : 0,
					"patching_rect" : [ 337.5, 446.0, 50.0, 22.0 ]
				}

			}
, 			{
				"box" : 				{
					"activedialcolor" : [ 0.27843137254902, 0.83921568627451, 1.0, 1.0 ],
					"activefgdialcolor" : [ 0.623529411764706, 0.623529411764706, 0.623529411764706, 1.0 ],
					"activeneedlecolor" : [ 0.015686274509804, 0.0, 0.0, 0.701960784313725 ],
					"bordercolor" : [ 0.458823529411765, 0.368627450980392, 0.368627450980392, 1.0 ],
					"dialcolor" : [ 0.898039215686275, 0.898039215686275, 0.898039215686275, 1.0 ],
					"fgdialcolor" : [ 0.898039215686275, 0.898039215686275, 0.898039215686275, 1.0 ],
					"focusbordercolor" : [ 0.643137254901961, 0.643137254901961, 0.643137254901961, 1.0 ],
					"fontface" : 1,
					"id" : "obj-15",
					"maxclass" : "live.dial",
					"numinlets" : 1,
					"numoutlets" : 2,
					"outlettype" : [ "", "float" ],
					"parameter_enable" : 1,
					"patching_rect" : [ 201.0, 311.0, 44.0, 48.0 ],
					"presentation" : 1,
					"presentation_rect" : [ 4.13552900000002, 58.60577392578125, 44.0, 48.0 ],
					"saved_attribute_attributes" : 					{
						"valueof" : 						{
							"parameter_initial" : [ 0.0 ],
							"parameter_initial_enable" : 1,
							"parameter_linknames" : 1,
							"parameter_longname" : "fcMixMax",
							"parameter_mmax" : 100.0,
							"parameter_mmin" : 1.0,
							"parameter_shortname" : "Max",
							"parameter_type" : 0,
							"parameter_unitstyle" : 5
						}

					}
,
					"textcolor" : [ 0.87843137254902, 1.0, 1.0, 1.0 ],
					"varname" : "fcMixMax"
				}

			}
, 			{
				"box" : 				{
					"activedialcolor" : [ 0.27843137254902, 0.83921568627451, 1.0, 1.0 ],
					"activefgdialcolor" : [ 0.56078431372549, 0.584313725490196, 0.6, 1.0 ],
					"activeneedlecolor" : [ 0.015686274509804, 0.0, 0.0, 0.701960784313725 ],
					"bordercolor" : [ 0.458823529411765, 0.368627450980392, 0.368627450980392, 1.0 ],
					"focusbordercolor" : [ 0.643137254901961, 0.643137254901961, 0.643137254901961, 1.0 ],
					"fontface" : 1,
					"id" : "obj-14",
					"maxclass" : "live.dial",
					"numinlets" : 1,
					"numoutlets" : 2,
					"outlettype" : [ "", "float" ],
					"parameter_enable" : 1,
					"patching_rect" : [ 145.0, 311.0, 44.0, 48.0 ],
					"presentation" : 1,
					"presentation_rect" : [ 42.0, 58.60577392578125, 44.0, 48.0 ],
					"saved_attribute_attributes" : 					{
						"valueof" : 						{
							"parameter_initial" : [ 0.0 ],
							"parameter_initial_enable" : 1,
							"parameter_linknames" : 1,
							"parameter_longname" : "fcMixMin",
							"parameter_mmax" : 99.0,
							"parameter_shortname" : "Min",
							"parameter_type" : 0,
							"parameter_unitstyle" : 5
						}

					}
,
					"textcolor" : [ 0.882352941176471, 0.956862745098039, 0.992156862745098, 1.0 ],
					"varname" : "fcMixMin"
				}

			}
, 			{
				"box" : 				{
					"activedialcolor" : [ 0.129411764705882, 0.168627450980392, 0.509803921568627, 1.0 ],
					"activefgdialcolor" : [ 0.396078431372549, 0.403921568627451, 0.4, 1.0 ],
					"activeneedlecolor" : [ 0.015686274509804, 0.0, 0.0, 0.701960784313725 ],
					"bordercolor" : [ 0.458823529411765, 0.368627450980392, 0.368627450980392, 1.0 ],
					"focusbordercolor" : [ 0.643137254901961, 0.643137254901961, 0.643137254901961, 1.0 ],
					"fontface" : 1,
					"id" : "obj-12",
					"maxclass" : "live.dial",
					"numinlets" : 1,
					"numoutlets" : 2,
					"outlettype" : [ "", "float" ],
					"parameter_enable" : 1,
					"patching_rect" : [ 273.5, 157.999999999999972, 44.0, 48.0 ],
					"presentation" : 1,
					"presentation_rect" : [ 117.441619655273428, 6.0, 44.0, 48.0 ],
					"saved_attribute_attributes" : 					{
						"valueof" : 						{
							"parameter_exponent" : 8.0,
							"parameter_initial" : [ 0.0 ],
							"parameter_initial_enable" : 1,
							"parameter_linknames" : 1,
							"parameter_longname" : "fcFreqFrequency",
							"parameter_mmax" : 100.0,
							"parameter_shortname" : "Freq",
							"parameter_type" : 0,
							"parameter_unitstyle" : 3
						}

					}
,
					"textcolor" : [ 0.129411764705882, 0.168627450980392, 0.509803921568627, 1.0 ],
					"varname" : "fcFreqFrequency"
				}

			}
, 			{
				"box" : 				{
					"activedialcolor" : [ 0.129411764705882, 0.168627450980392, 0.509803921568627, 1.0 ],
					"activefgdialcolor" : [ 0.396078431372549, 0.403921568627451, 0.4, 1.0 ],
					"activeneedlecolor" : [ 0.015686274509804, 0.0, 0.0, 0.701960784313725 ],
					"bordercolor" : [ 0.458823529411765, 0.368627450980392, 0.368627450980392, 1.0 ],
					"focusbordercolor" : [ 0.643137254901961, 0.643137254901961, 0.643137254901961, 1.0 ],
					"fontface" : 1,
					"id" : "obj-20",
					"maxclass" : "live.dial",
					"numinlets" : 1,
					"numoutlets" : 2,
					"outlettype" : [ "", "float" ],
					"parameter_enable" : 1,
					"patching_rect" : [ 60.0, 162.999999999999972, 44.0, 48.0 ],
					"presentation" : 1,
					"presentation_rect" : [ 21.13552900000002, 6.0, 44.0, 48.0 ],
					"saved_attribute_attributes" : 					{
						"valueof" : 						{
							"parameter_exponent" : 8.0,
							"parameter_initial" : [ 0.0 ],
							"parameter_initial_enable" : 1,
							"parameter_linknames" : 1,
							"parameter_longname" : "fcMixFrequency",
							"parameter_mmax" : 100.0,
							"parameter_shortname" : "Mix",
							"parameter_type" : 0,
							"parameter_unitstyle" : 3
						}

					}
,
					"textcolor" : [ 0.129411764705882, 0.168627450980392, 0.509803921568627, 1.0 ],
					"varname" : "fcMixFrequency"
				}

			}
, 			{
				"box" : 				{
					"id" : "obj-11",
					"maxclass" : "newobj",
					"numinlets" : 2,
					"numoutlets" : 1,
					"outlettype" : [ "float" ],
					"patching_rect" : [ 273.5, 324.0, 81.0, 22.0 ],
					"text" : "snapshot~ 20"
				}

			}
, 			{
				"box" : 				{
					"comment" : "Freq Frequency Hz [0, 100]",
					"id" : "obj-10",
					"index" : 2,
					"maxclass" : "inlet",
					"numinlets" : 0,
					"numoutlets" : 1,
					"outlettype" : [ "" ],
					"patching_rect" : [ 394.5, 44.0, 30.0, 30.0 ]
				}

			}
, 			{
				"box" : 				{
					"bgmode" : 0,
					"border" : 0,
					"clickthrough" : 0,
					"enablehscroll" : 0,
					"enablevscroll" : 0,
					"id" : "obj-5",
					"lockeddragscroll" : 0,
					"maxclass" : "bpatcher",
					"name" : "zsLFO-bp.maxpat",
					"numinlets" : 1,
					"numoutlets" : 5,
					"offset" : [ 0.0, 0.0 ],
					"outlettype" : [ "signal", "signal", "signal", "signal", "signal" ],
					"patching_rect" : [ 273.5, 220.0, 158.0, 79.0 ],
					"varname" : "zsLFO-bp[1]",
					"viewvisibility" : 1
				}

			}
, 			{
				"box" : 				{
					"comment" : "Mix Frequency Hz [0, 100]",
					"id" : "obj-9",
					"index" : 1,
					"maxclass" : "inlet",
					"numinlets" : 0,
					"numoutlets" : 1,
					"outlettype" : [ "" ],
					"patching_rect" : [ 337.5, 44.0, 30.0, 30.0 ]
				}

			}
, 			{
				"box" : 				{
					"id" : "obj-4",
					"maxclass" : "message",
					"numinlets" : 2,
					"numoutlets" : 1,
					"outlettype" : [ "" ],
					"patching_rect" : [ 61.5, 121.0, 29.5, 22.0 ],
					"text" : "0"
				}

			}
, 			{
				"box" : 				{
					"id" : "obj-2",
					"maxclass" : "newobj",
					"numinlets" : 1,
					"numoutlets" : 1,
					"outlettype" : [ "bang" ],
					"patching_rect" : [ 61.5, 92.0, 58.0, 22.0 ],
					"text" : "loadbang"
				}

			}
, 			{
				"box" : 				{
					"fontname" : "Arial",
					"fontsize" : 12.0,
					"id" : "obj-6",
					"maxclass" : "newobj",
					"numinlets" : 1,
					"numoutlets" : 4,
					"outlettype" : [ "", "", "", "" ],
					"patching_rect" : [ 251.0, 10.5, 59.5, 22.0 ],
					"restore" : 					{
						"fcFreqFrequency" : [ 0.078994523079247 ],
						"fcFreqMax" : [ 4420.829766314493099 ],
						"fcFreqMin" : [ 595.684852873825889 ],
						"fcMixFrequency" : [ 0.248187689165315 ],
						"fcMixMax" : [ 22.826771653543478 ],
						"fcMixMin" : [ 86.039370078740006 ]
					}
,
					"text" : "autopattr",
					"varname" : "u687007762"
				}

			}
, 			{
				"box" : 				{
					"fontsize" : 12.0,
					"id" : "obj-45",
					"linecount" : 3,
					"maxclass" : "comment",
					"numinlets" : 1,
					"numoutlets" : 0,
					"patching_rect" : [ 165.322997999999984, 5.0, 76.0, 47.0 ],
					"presentation" : 1,
					"presentation_linecount" : 3,
					"presentation_rect" : [ 188.883239310546855, 1.89422607421875, 51.0, 47.0 ],
					"text" : "ZS \nFIlter\nControl",
					"textcolor" : [ 0.129411764705882, 0.168627450980392, 0.509803921568627, 1.0 ]
				}

			}
, 			{
				"box" : 				{
					"id" : "obj-16",
					"maxclass" : "comment",
					"numinlets" : 1,
					"numoutlets" : 0,
					"patching_rect" : [ 31.0, 44.0, 231.0, 20.0 ],
					"text" : "## ZS Filter control ## "
				}

			}
, 			{
				"box" : 				{
					"id" : "obj-121",
					"maxclass" : "newobj",
					"numinlets" : 6,
					"numoutlets" : 1,
					"outlettype" : [ "" ],
					"patching_rect" : [ 273.5, 404.0, 197.0, 22.0 ],
					"text" : "scale -1. 1. 30. 4000."
				}

			}
, 			{
				"box" : 				{
					"id" : "obj-94",
					"maxclass" : "newobj",
					"numinlets" : 2,
					"numoutlets" : 1,
					"outlettype" : [ "float" ],
					"patching_rect" : [ 60.0, 331.0, 81.0, 22.0 ],
					"text" : "snapshot~ 20"
				}

			}
, 			{
				"box" : 				{
					"id" : "obj-35",
					"maxclass" : "newobj",
					"numinlets" : 6,
					"numoutlets" : 1,
					"outlettype" : [ "" ],
					"patching_rect" : [ 60.0, 404.0, 161.0, 22.0 ],
					"text" : "scale -1. 1. 30. 99."
				}

			}
, 			{
				"box" : 				{
					"bgmode" : 0,
					"border" : 0,
					"clickthrough" : 0,
					"enablehscroll" : 0,
					"enablevscroll" : 0,
					"id" : "obj-26",
					"lockeddragscroll" : 0,
					"maxclass" : "bpatcher",
					"name" : "zsLFO-bp.maxpat",
					"numinlets" : 1,
					"numoutlets" : 5,
					"offset" : [ 0.0, 0.0 ],
					"outlettype" : [ "signal", "signal", "signal", "signal", "signal" ],
					"patching_rect" : [ 60.0, 224.0, 158.0, 79.0 ],
					"varname" : "zsLFO-bp",
					"viewvisibility" : 1
				}

			}
, 			{
				"box" : 				{
					"angle" : 270.0,
					"bgcolor" : [ 0.2, 0.2, 0.2, 0.0 ],
					"bordercolor" : [ 0.32156862745098, 0.356862745098039, 0.36078431372549, 1.0 ],
					"id" : "obj-24",
					"maxclass" : "panel",
					"mode" : 0,
					"numinlets" : 1,
					"numoutlets" : 0,
					"patching_rect" : [ 667.0, 44.0, 179.0, 72.0 ],
					"presentation" : 1,
					"presentation_rect" : [ 92.0, 1.89422607421875, 94.883239310546855, 111.10577392578125 ],
					"proportion" : 0.5
				}

			}
, 			{
				"box" : 				{
					"angle" : 270.0,
					"bgcolor" : [ 0.2, 0.2, 0.2, 0.0 ],
					"bordercolor" : [ 0.32156862745098, 0.356862745098039, 0.36078431372549, 1.0 ],
					"id" : "obj-23",
					"maxclass" : "panel",
					"mode" : 0,
					"numinlets" : 1,
					"numoutlets" : 0,
					"patching_rect" : [ 468.0, 44.0, 179.0, 72.0 ],
					"presentation" : 1,
					"presentation_rect" : [ 4.13552900000002, 1.89422607421875, 89.36447099999998, 111.10577392578125 ],
					"proportion" : 0.5
				}

			}
, 			{
				"box" : 				{
					"angle" : 270.0,
					"grad1" : [ 0.756862745098039, 0.996078431372549, 0.996078431372549, 1.0 ],
					"grad2" : [ 0.2, 0.2, 0.2, 1.0 ],
					"id" : "obj-41",
					"maxclass" : "panel",
					"mode" : 1,
					"numinlets" : 1,
					"numoutlets" : 0,
					"patching_rect" : [ 31.0, 1.0, 127.0, 41.0 ],
					"presentation" : 1,
					"presentation_rect" : [ 0.13552900000002, -3.10577392578125, 243.883239310546855, 125.105773925781222 ],
					"proportion" : 0.5
				}

			}
 ],
		"lines" : [ 			{
				"patchline" : 				{
					"destination" : [ "obj-12", 0 ],
					"source" : [ "obj-10", 0 ]
				}

			}
, 			{
				"patchline" : 				{
					"destination" : [ "obj-121", 0 ],
					"source" : [ "obj-11", 0 ]
				}

			}
, 			{
				"patchline" : 				{
					"destination" : [ "obj-5", 0 ],
					"source" : [ "obj-12", 0 ]
				}

			}
, 			{
				"patchline" : 				{
					"destination" : [ "obj-17", 0 ],
					"order" : 0,
					"source" : [ "obj-121", 0 ]
				}

			}
, 			{
				"patchline" : 				{
					"destination" : [ "obj-18", 0 ],
					"order" : 1,
					"source" : [ "obj-121", 0 ]
				}

			}
, 			{
				"patchline" : 				{
					"destination" : [ "obj-35", 3 ],
					"source" : [ "obj-14", 0 ]
				}

			}
, 			{
				"patchline" : 				{
					"destination" : [ "obj-35", 4 ],
					"source" : [ "obj-15", 0 ]
				}

			}
, 			{
				"patchline" : 				{
					"destination" : [ "obj-4", 0 ],
					"source" : [ "obj-2", 0 ]
				}

			}
, 			{
				"patchline" : 				{
					"destination" : [ "obj-26", 0 ],
					"source" : [ "obj-20", 0 ]
				}

			}
, 			{
				"patchline" : 				{
					"destination" : [ "obj-121", 3 ],
					"source" : [ "obj-21", 0 ]
				}

			}
, 			{
				"patchline" : 				{
					"destination" : [ "obj-121", 4 ],
					"source" : [ "obj-22", 0 ]
				}

			}
, 			{
				"patchline" : 				{
					"destination" : [ "obj-94", 0 ],
					"source" : [ "obj-26", 0 ]
				}

			}
, 			{
				"patchline" : 				{
					"destination" : [ "obj-49", 0 ],
					"source" : [ "obj-35", 0 ]
				}

			}
, 			{
				"patchline" : 				{
					"destination" : [ "obj-12", 0 ],
					"order" : 0,
					"source" : [ "obj-4", 0 ]
				}

			}
, 			{
				"patchline" : 				{
					"destination" : [ "obj-20", 0 ],
					"order" : 1,
					"source" : [ "obj-4", 0 ]
				}

			}
, 			{
				"patchline" : 				{
					"destination" : [ "obj-11", 0 ],
					"source" : [ "obj-5", 0 ]
				}

			}
, 			{
				"patchline" : 				{
					"destination" : [ "obj-20", 0 ],
					"source" : [ "obj-9", 0 ]
				}

			}
, 			{
				"patchline" : 				{
					"destination" : [ "obj-35", 0 ],
					"source" : [ "obj-94", 0 ]
				}

			}
 ],
		"styles" : [ 			{
				"name" : "maxscore.default.buttons",
				"default" : 				{
					"accentcolor" : [ 1.0, 1.0, 1.0, 1.0 ]
				}
,
				"parentstyle" : "",
				"multi" : 0
			}
 ]
	}

}
